<?xml version="1.0" standalone="no"?>
<!DOCTYPE svg PUBLIC "-//W3C//DTD SVG 20010904//EN"
 "http://www.w3.org/TR/2001/REC-SVG-20010904/DTD/svg10.dtd">
<svg version="1.0" xmlns="http://www.w3.org/2000/svg"
 width="250.000000pt" height="157.000000pt" viewBox="0 0 250.000000 157.000000"
 preserveAspectRatio="xMidYMid meet">
<g transform="translate(0.000000,157.000000) scale(0.100000,-0.100000)"
fill="#000000" stroke="none">
<path d="M1262 1500 c1 -33 -1 -60 -5 -60 -4 0 -30 11 -57 25 -27 14 -88 37
-137 52 -81 25 -101 27 -258 27 -159 0 -175 -2 -255 -28 -145 -48 -244 -109
-346 -213 -183 -185 -236 -417 -147 -639 70 -176 254 -323 483 -387 61 -17
103 -21 225 -20 194 0 314 24 498 98 13 5 17 2 17 -14 0 -20 4 -21 138 -21
l137 0 -3 230 -3 230 36 0 35 0 0 -255 0 -255 -65 0 -65 0 0 -130 0 -130 305
0 305 0 0 131 0 130 -65 -2 -65 -2 -3 256 -2 257 142 0 141 0 7 -60 7 -60 114
0 114 0 0 203 0 202 -750 0 -750 0 0 -202 0 -203 114 0 114 0 8 58 c9 57 9 57
47 60 20 2 37 1 37 -1 0 -18 -38 -89 -65 -122 -98 -120 -279 -175 -461 -140
-180 35 -321 131 -360 247 -69 205 52 412 283 484 74 24 95 26 181 21 133 -7
230 -42 343 -124 l47 -33 121 0 121 0 0 225 0 225 -131 0 -131 0 4 -60z m218
-166 l0 -186 -99 4 c-85 2 -103 6 -123 24 -35 33 -125 80 -198 104 -360 120
-725 -111 -697 -441 11 -135 92 -241 237 -312 220 -108 481 -83 641 61 49 44
101 136 114 200 l7 32 -80 0 -81 0 -11 -55 -11 -55 -75 0 -74 0 0 155 0 155
710 0 710 0 0 -155 0 -155 -75 0 -74 0 -6 38 c-4 20 -7 44 -8 52 -2 13 -31 15
-185 18 l-182 2 0 -298 0 -299 66 1 65 1 2 -88 2 -87 -262 0 -263 0 0 91 0 91
65 -4 64 -3 3 298 3 297 -77 0 -78 0 0 -229 0 -229 -96 -1 -96 -1 4 40 c2 22
1 39 -2 37 -225 -128 -545 -174 -785 -112 -221 58 -410 231 -460 420 -43 166
2 343 124 492 84 102 264 213 400 248 199 51 462 14 638 -89 34 -20 64 -36 68
-36 3 0 6 33 5 73 -1 39 -1 75 -1 80 1 4 39 7 86 7 l85 0 0 -186z"/>
</g>
</svg>
